<svg width="128" height="128" viewBox="0 0 128 128" fill="none" xmlns="http://www.w3.org/2000/svg">
  <!-- Background Circle -->
  <circle cx="64" cy="64" r="60" fill="#1a73e8"/>

  <!-- Document Icon -->
  <rect x="38" y="28" width="40" height="52" rx="4" fill="white"/>
  <rect x="44" y="40" width="28" height="3" rx="1.5" fill="#1a73e8" opacity="0.3"/>
  <rect x="44" y="48" width="22" height="3" rx="1.5" fill="#1a73e8" opacity="0.3"/>
  <rect x="44" y="56" width="26" height="3" rx="1.5" fill="#1a73e8" opacity="0.3"/>
  <rect x="44" y="64" width="18" height="3" rx="1.5" fill="#1a73e8" opacity="0.3"/>

  <!-- AI Sparkle -->
  <path d="M82 70 L86 78 L94 82 L86 86 L82 94 L78 86 L70 82 L78 78 Z" fill="#FBBC04"/>
  <circle cx="88" cy="72" r="3" fill="#FBBC04"/>
  <circle cx="76" cy="92" r="2" fill="#FBBC04"/>

  <!-- Car/Speed Lines -->
  <path d="M20 64 L32 64" stroke="white" stroke-width="3" stroke-linecap="round" opacity="0.6"/>
  <path d="M22 72 L30 72" stroke="white" stroke-width="2" stroke-linecap="round" opacity="0.4"/>
  <path d="M24 56 L30 56" stroke="white" stroke-width="2" stroke-linecap="round" opacity="0.4"/>
</svg>
